<mxfile host="app.diagrams.net" modified="2024-07-14T20:07:21.012Z" agent="Mozilla/5.0 (X11; Linux x86_64; rv:128.0) Gecko/20100101 Firefox/128.0" etag="3QzVzji1sb0cUWPWpfnc" version="24.6.4" type="device">
  <diagram name="trilemma" id="8a1OMIoHm3Lf3Zguux29">
    <mxGraphModel dx="1226" dy="1130" grid="1" gridSize="10" guides="1" tooltips="1" connect="1" arrows="1" fold="1" page="1" pageScale="1" pageWidth="827" pageHeight="1169" math="0" shadow="0">
      <root>
        <mxCell id="0" />
        <mxCell id="1" parent="0" />
        <mxCell id="zKDagLHh3mOVyZix4WBI-3" value="" style="shape=flexArrow;endArrow=classic;startArrow=classic;html=1;rounded=0;fillColor=#1ba1e2;strokeColor=#006EAF;" edge="1" parent="1">
          <mxGeometry width="100" height="100" relative="1" as="geometry">
            <mxPoint x="180" y="390" as="sourcePoint" />
            <mxPoint x="280" y="240" as="targetPoint" />
          </mxGeometry>
        </mxCell>
        <mxCell id="zKDagLHh3mOVyZix4WBI-4" value="" style="shape=flexArrow;endArrow=classic;startArrow=classic;html=1;rounded=0;fillColor=#1ba1e2;strokeColor=#006EAF;" edge="1" parent="1">
          <mxGeometry width="100" height="100" relative="1" as="geometry">
            <mxPoint x="480" y="240" as="sourcePoint" />
            <mxPoint x="576" y="390" as="targetPoint" />
          </mxGeometry>
        </mxCell>
        <mxCell id="zKDagLHh3mOVyZix4WBI-5" value="" style="shape=flexArrow;endArrow=classic;startArrow=classic;html=1;rounded=0;fillColor=#1ba1e2;strokeColor=#006EAF;" edge="1" parent="1">
          <mxGeometry width="100" height="100" relative="1" as="geometry">
            <mxPoint x="280" y="410" as="sourcePoint" />
            <mxPoint x="480" y="410" as="targetPoint" />
          </mxGeometry>
        </mxCell>
        <mxCell id="zKDagLHh3mOVyZix4WBI-6" value="&lt;h1&gt;Sicurezza&lt;/h1&gt;" style="text;html=1;align=center;verticalAlign=middle;whiteSpace=wrap;rounded=0;fillColor=#dae8fc;strokeColor=#6c8ebf;" vertex="1" parent="1">
          <mxGeometry x="490" y="395" width="160" height="40" as="geometry" />
        </mxCell>
        <mxCell id="zKDagLHh3mOVyZix4WBI-7" value="&lt;h1&gt;Decentralizzazione&lt;/h1&gt;" style="text;html=1;align=center;verticalAlign=middle;whiteSpace=wrap;rounded=0;fillColor=#dae8fc;strokeColor=#6c8ebf;" vertex="1" parent="1">
          <mxGeometry x="260" y="190" width="230" height="40" as="geometry" />
        </mxCell>
        <mxCell id="zKDagLHh3mOVyZix4WBI-9" value="&lt;h1&gt;Scalabilita&lt;/h1&gt;" style="text;html=1;align=center;verticalAlign=middle;whiteSpace=wrap;rounded=0;fillColor=#dae8fc;strokeColor=#6c8ebf;" vertex="1" parent="1">
          <mxGeometry x="100" y="395" width="160" height="40" as="geometry" />
        </mxCell>
      </root>
    </mxGraphModel>
  </diagram>
</mxfile>
